<svg width="193" height="30" viewBox="0 0 193 30" fill="none" xmlns="http://www.w3.org/2000/svg">
<path d="M11.92 9.696L6.28 23.424C6.216 23.616 6.104 23.768 5.944 23.88C5.784 23.992 5.616 24.048 5.44 24.048C5.136 24.048 4.912 23.968 4.768 23.808C4.624 23.648 4.552 23.456 4.552 23.232C4.536 23.12 4.552 23 4.6 22.872L10.816 7.752C10.896 7.528 11.016 7.368 11.176 7.272C11.352 7.16 11.544 7.112 11.752 7.128C11.96 7.128 12.144 7.184 12.304 7.296C12.48 7.408 12.6 7.56 12.664 7.752L18.856 22.728C18.904 22.856 18.928 22.984 18.928 23.112C18.928 23.4 18.832 23.632 18.64 23.808C18.448 23.968 18.232 24.048 17.992 24.048C17.8 24.048 17.624 23.992 17.464 23.88C17.304 23.768 17.184 23.608 17.104 23.4L11.392 9.672L11.92 9.696ZM7.48 19.512L8.296 17.64H15.424L15.784 19.512H7.48ZM115.632 24.048C115.344 24.048 115.104 23.928 114.912 23.688L108.528 15.552L109.992 14.064L116.496 22.392C116.64 22.6 116.712 22.816 116.712 23.04C116.712 23.36 116.592 23.608 116.352 23.784C116.128 23.96 115.888 24.048 115.632 24.048ZM115.56 7.176C115.816 7.176 116.024 7.28 116.184 7.488C116.36 7.696 116.448 7.912 116.448 8.136C116.448 8.36 116.352 8.568 116.16 8.76L105.552 18.792L105.384 16.56L114.792 7.536C115.032 7.296 115.288 7.176 115.56 7.176ZM104.76 24C104.456 24 104.216 23.904 104.04 23.712C103.864 23.52 103.776 23.288 103.776 23.016V8.184C103.776 7.896 103.872 7.664 104.064 7.488C104.256 7.296 104.496 7.2 104.784 7.2C105.088 7.2 105.328 7.296 105.504 7.488C105.68 7.664 105.768 7.896 105.768 8.184V23.016C105.768 23.288 105.672 23.52 105.48 23.712C105.304 23.904 105.064 24 104.76 24Z" fill="#0D9373"/>
<path d="M20.6241 11.664H26.2641C26.5201 11.664 26.7281 11.752 26.8881 11.928C27.0641 12.104 27.1521 12.312 27.1521 12.552C27.1521 12.808 27.0641 13.024 26.8881 13.2C26.7281 13.36 26.5201 13.44 26.2641 13.44H20.6241C20.3841 13.44 20.1761 13.352 20.0001 13.176C19.8241 13 19.7361 12.784 19.7361 12.528C19.7361 12.288 19.8241 12.088 20.0001 11.928C20.1761 11.752 20.3841 11.664 20.6241 11.664ZM23.1441 8.4C23.4161 8.4 23.6401 8.496 23.8161 8.688C23.9921 8.864 24.0801 9.088 24.0801 9.36V20.952C24.0801 21.336 24.1361 21.624 24.2481 21.816C24.3601 22.008 24.5041 22.144 24.6801 22.224C24.8721 22.288 25.0561 22.32 25.2321 22.32C25.3921 22.32 25.5281 22.296 25.6401 22.248C25.7681 22.184 25.9121 22.152 26.0721 22.152C26.2321 22.152 26.3761 22.232 26.5041 22.392C26.6481 22.536 26.7201 22.728 26.7201 22.968C26.7201 23.256 26.5521 23.504 26.2161 23.712C25.8801 23.904 25.5041 24 25.0881 24C24.8641 24 24.5841 23.984 24.2481 23.952C23.9281 23.92 23.6081 23.816 23.2881 23.64C22.9681 23.464 22.6961 23.176 22.4721 22.776C22.2641 22.36 22.1601 21.784 22.1601 21.048V9.36C22.1601 9.088 22.2561 8.864 22.4481 8.688C22.6401 8.496 22.8721 8.4 23.1441 8.4ZM35.8229 11.4C36.8789 11.4 37.7109 11.632 38.3189 12.096C38.9429 12.544 39.3829 13.152 39.6389 13.92C39.9109 14.672 40.0469 15.512 40.0469 16.44V23.016C40.0469 23.288 39.9509 23.52 39.7589 23.712C39.5829 23.904 39.3589 24 39.0869 24C38.8149 24 38.5829 23.904 38.3909 23.712C38.2149 23.52 38.1269 23.288 38.1269 23.016V16.44C38.1269 15.832 38.0389 15.288 37.8629 14.808C37.6869 14.312 37.3909 13.92 36.9749 13.632C36.5749 13.328 36.0229 13.176 35.3189 13.176C34.6629 13.176 34.0629 13.328 33.5189 13.632C32.9749 13.92 32.5429 14.312 32.2229 14.808C31.9029 15.288 31.7429 15.832 31.7429 16.44V23.016C31.7429 23.288 31.6469 23.52 31.4549 23.712C31.2789 23.904 31.0549 24 30.7829 24C30.5109 24 30.2789 23.904 30.0869 23.712C29.9109 23.52 29.8229 23.288 29.8229 23.016V7.2C29.8229 6.928 29.9109 6.704 30.0869 6.528C30.2789 6.336 30.5109 6.24 30.7829 6.24C31.0709 6.24 31.3029 6.336 31.4789 6.528C31.6549 6.704 31.7429 6.928 31.7429 7.2V14.376L31.2629 14.904C31.3429 14.488 31.5189 14.072 31.7909 13.656C32.0629 13.224 32.4069 12.84 32.8229 12.504C33.2389 12.168 33.7029 11.904 34.2149 11.712C34.7269 11.504 35.2629 11.4 35.8229 11.4ZM53.8281 11.472C54.1001 11.472 54.3241 11.568 54.5001 11.76C54.6921 11.936 54.7881 12.16 54.7881 12.432V23.016C54.7881 23.288 54.6921 23.52 54.5001 23.712C54.3241 23.904 54.1001 24 53.8281 24C53.5401 24 53.3081 23.904 53.1321 23.712C52.9561 23.52 52.8681 23.288 52.8681 23.016V20.736L53.3241 20.688C53.3241 21.04 53.2041 21.424 52.9641 21.84C52.7241 22.256 52.3961 22.648 51.9801 23.016C51.5641 23.368 51.0681 23.664 50.4921 23.904C49.9321 24.128 49.3241 24.24 48.6681 24.24C47.5801 24.24 46.6041 23.96 45.7401 23.4C44.8761 22.824 44.1881 22.048 43.6761 21.072C43.1801 20.096 42.9321 18.984 42.9321 17.736C42.9321 16.472 43.1801 15.36 43.6761 14.4C44.1881 13.424 44.8761 12.664 45.7401 12.12C46.6041 11.56 47.5641 11.28 48.6201 11.28C49.3081 11.28 49.9481 11.392 50.5401 11.616C51.1321 11.84 51.6441 12.144 52.0761 12.528C52.5241 12.912 52.8681 13.336 53.1081 13.8C53.3641 14.264 53.4921 14.728 53.4921 15.192L52.8681 15.048V12.432C52.8681 12.16 52.9561 11.936 53.1321 11.76C53.3081 11.568 53.5401 11.472 53.8281 11.472ZM48.8841 22.464C49.6841 22.464 50.3881 22.256 50.9961 21.84C51.6201 21.424 52.1001 20.864 52.4361 20.16C52.7881 19.44 52.9641 18.632 52.9641 17.736C52.9641 16.856 52.7881 16.064 52.4361 15.36C52.1001 14.64 51.6201 14.08 50.9961 13.68C50.3881 13.264 49.6841 13.056 48.8841 13.056C48.1001 13.056 47.3961 13.256 46.7721 13.656C46.1641 14.056 45.6841 14.608 45.3321 15.312C44.9801 16.016 44.8041 16.824 44.8041 17.736C44.8041 18.632 44.9721 19.44 45.3081 20.16C45.6601 20.864 46.1401 21.424 46.7481 21.84C47.3721 22.256 48.0841 22.464 48.8841 22.464ZM59.3063 24C59.0343 24 58.8023 23.904 58.6103 23.712C58.4343 23.52 58.3463 23.288 58.3463 23.016V12.552C58.3463 12.28 58.4343 12.056 58.6103 11.88C58.8023 11.688 59.0343 11.592 59.3063 11.592C59.5943 11.592 59.8263 11.688 60.0023 11.88C60.1783 12.056 60.2663 12.28 60.2663 12.552V15.72L59.9783 15.216C60.0743 14.72 60.2423 14.24 60.4823 13.776C60.7383 13.296 61.0583 12.872 61.4423 12.504C61.8263 12.12 62.2663 11.824 62.7623 11.616C63.2583 11.392 63.8023 11.28 64.3943 11.28C64.7463 11.28 65.0663 11.368 65.3543 11.544C65.6583 11.704 65.8103 11.936 65.8103 12.24C65.8103 12.576 65.7223 12.824 65.5463 12.984C65.3703 13.144 65.1703 13.224 64.9463 13.224C64.7383 13.224 64.5383 13.184 64.3463 13.104C64.1543 13.008 63.9143 12.96 63.6263 12.96C63.2263 12.96 62.8263 13.072 62.4263 13.296C62.0423 13.504 61.6823 13.808 61.3463 14.208C61.0263 14.608 60.7623 15.064 60.5543 15.576C60.3623 16.072 60.2663 16.608 60.2663 17.184V23.016C60.2663 23.288 60.1703 23.52 59.9783 23.712C59.8023 23.904 59.5783 24 59.3063 24ZM69.1744 11.376C69.3664 11.376 69.5504 11.432 69.7264 11.544C69.9024 11.64 70.0304 11.784 70.1104 11.976L74.0944 21.336L73.7104 21.528L77.7664 12C77.9424 11.568 78.2384 11.36 78.6544 11.376C78.8944 11.376 79.1024 11.456 79.2784 11.616C79.4544 11.776 79.5424 11.976 79.5424 12.216C79.5424 12.312 79.5264 12.408 79.4944 12.504C79.4784 12.584 79.4544 12.656 79.4224 12.72L74.7904 23.376C74.6144 23.776 74.3344 23.984 73.9504 24C73.7424 24.016 73.5424 23.976 73.3504 23.88C73.1744 23.768 73.0464 23.6 72.9664 23.376L68.3344 12.744C68.3024 12.68 68.2704 12.608 68.2384 12.528C68.2224 12.448 68.2144 12.352 68.2144 12.24C68.2144 12.032 68.2944 11.84 68.4544 11.664C68.6304 11.472 68.8704 11.376 69.1744 11.376ZM92.3125 11.472C92.5845 11.472 92.8085 11.568 92.9845 11.76C93.1765 11.936 93.2725 12.16 93.2725 12.432V23.016C93.2725 23.288 93.1765 23.52 92.9845 23.712C92.8085 23.904 92.5845 24 92.3125 24C92.0245 24 91.7925 23.904 91.6165 23.712C91.4405 23.52 91.3525 23.288 91.3525 23.016V20.736L91.8085 20.688C91.8085 21.04 91.6885 21.424 91.4485 21.84C91.2085 22.256 90.8805 22.648 90.4645 23.016C90.0485 23.368 89.5525 23.664 88.9765 23.904C88.4165 24.128 87.8085 24.24 87.1525 24.24C86.0645 24.24 85.0885 23.96 84.2245 23.4C83.3605 22.824 82.6725 22.048 82.1605 21.072C81.6645 20.096 81.4165 18.984 81.4165 17.736C81.4165 16.472 81.6645 15.36 82.1605 14.4C82.6725 13.424 83.3605 12.664 84.2245 12.12C85.0885 11.56 86.0485 11.28 87.1045 11.28C87.7925 11.28 88.4325 11.392 89.0245 11.616C89.6165 11.84 90.1285 12.144 90.5605 12.528C91.0085 12.912 91.3525 13.336 91.5925 13.8C91.8485 14.264 91.9765 14.728 91.9765 15.192L91.3525 15.048V12.432C91.3525 12.16 91.4405 11.936 91.6165 11.76C91.7925 11.568 92.0245 11.472 92.3125 11.472ZM87.3685 22.464C88.1685 22.464 88.8725 22.256 89.4805 21.84C90.1045 21.424 90.5845 20.864 90.9205 20.16C91.2725 19.44 91.4485 18.632 91.4485 17.736C91.4485 16.856 91.2725 16.064 90.9205 15.36C90.5845 14.64 90.1045 14.08 89.4805 13.68C88.8725 13.264 88.1685 13.056 87.3685 13.056C86.5845 13.056 85.8805 13.256 85.2565 13.656C84.6485 14.056 84.1685 14.608 83.8165 15.312C83.4645 16.016 83.2885 16.824 83.2885 17.736C83.2885 18.632 83.4565 19.44 83.7925 20.16C84.1445 20.864 84.6245 21.424 85.2325 21.84C85.8565 22.256 86.5685 22.464 87.3685 22.464ZM130.763 17.76C130.763 19.008 130.483 20.12 129.923 21.096C129.379 22.072 128.635 22.84 127.691 23.4C126.763 23.96 125.715 24.24 124.547 24.24C123.379 24.24 122.323 23.96 121.379 23.4C120.435 22.84 119.683 22.072 119.123 21.096C118.579 20.12 118.307 19.008 118.307 17.76C118.307 16.512 118.579 15.4 119.123 14.424C119.683 13.448 120.435 12.68 121.379 12.12C122.323 11.56 123.379 11.28 124.547 11.28C125.715 11.28 126.763 11.56 127.691 12.12C128.635 12.68 129.379 13.448 129.923 14.424C130.483 15.4 130.763 16.512 130.763 17.76ZM128.843 17.76C128.843 16.832 128.651 16.016 128.267 15.312C127.899 14.608 127.387 14.056 126.731 13.656C126.091 13.256 125.363 13.056 124.547 13.056C123.731 13.056 122.995 13.256 122.339 13.656C121.699 14.056 121.187 14.608 120.803 15.312C120.419 16.016 120.227 16.832 120.227 17.76C120.227 18.672 120.419 19.48 120.803 20.184C121.187 20.888 121.699 21.448 122.339 21.864C122.995 22.264 123.731 22.464 124.547 22.464C125.363 22.464 126.091 22.264 126.731 21.864C127.387 21.448 127.899 20.888 128.267 20.184C128.651 19.48 128.843 18.672 128.843 17.76ZM135.763 23.016C135.763 23.288 135.667 23.52 135.475 23.712C135.283 23.904 135.051 24 134.779 24C134.507 24 134.283 23.904 134.107 23.712C133.931 23.52 133.843 23.288 133.843 23.016V7.2C133.843 6.928 133.931 6.704 134.107 6.528C134.299 6.336 134.531 6.24 134.803 6.24C135.091 6.24 135.323 6.336 135.499 6.528C135.675 6.704 135.763 6.928 135.763 7.2V23.016ZM144.989 24.24C143.709 24.24 142.589 23.968 141.629 23.424C140.669 22.88 139.917 22.136 139.373 21.192C138.845 20.232 138.581 19.128 138.581 17.88C138.581 16.488 138.853 15.304 139.397 14.328C139.957 13.336 140.677 12.584 141.557 12.072C142.453 11.544 143.397 11.28 144.389 11.28C145.125 11.28 145.837 11.416 146.525 11.688C147.213 11.96 147.821 12.36 148.349 12.888C148.877 13.4 149.301 14.024 149.621 14.76C149.941 15.48 150.109 16.288 150.125 17.184C150.125 17.44 150.029 17.656 149.837 17.832C149.645 18.008 149.421 18.096 149.165 18.096H139.685L139.253 16.44H148.493L148.109 16.776V16.248C148.045 15.592 147.821 15.032 147.437 14.568C147.069 14.088 146.613 13.72 146.069 13.464C145.541 13.208 144.981 13.08 144.389 13.08C143.909 13.08 143.429 13.168 142.949 13.344C142.485 13.504 142.061 13.776 141.677 14.16C141.309 14.528 141.005 15.008 140.765 15.6C140.541 16.192 140.429 16.904 140.429 17.736C140.429 18.664 140.613 19.48 140.981 20.184C141.365 20.888 141.893 21.448 142.565 21.864C143.237 22.264 144.021 22.464 144.917 22.464C145.477 22.464 145.965 22.392 146.381 22.248C146.797 22.104 147.157 21.928 147.461 21.72C147.765 21.496 148.021 21.272 148.229 21.048C148.437 20.904 148.637 20.832 148.829 20.832C149.069 20.832 149.261 20.912 149.405 21.072C149.565 21.232 149.645 21.424 149.645 21.648C149.645 21.92 149.517 22.16 149.261 22.368C148.813 22.864 148.205 23.304 147.437 23.688C146.669 24.056 145.853 24.24 144.989 24.24ZM154.162 24C153.874 24 153.642 23.904 153.466 23.712C153.29 23.52 153.202 23.288 153.202 23.016V7.2C153.202 6.928 153.29 6.704 153.466 6.528C153.642 6.336 153.874 6.24 154.162 6.24C154.434 6.24 154.658 6.336 154.834 6.528C155.026 6.704 155.122 6.928 155.122 7.2V23.016C155.122 23.288 155.026 23.52 154.834 23.712C154.658 23.904 154.434 24 154.162 24ZM162.13 11.52C162.386 11.52 162.602 11.624 162.778 11.832C162.97 12.024 163.066 12.224 163.066 12.432C163.066 12.704 162.938 12.944 162.682 13.152L154.906 19.944L154.834 17.712L161.458 11.808C161.65 11.616 161.874 11.52 162.13 11.52ZM162.394 23.976C162.122 23.976 161.882 23.872 161.674 23.664L156.562 18.216L158.002 16.896L163.066 22.32C163.258 22.528 163.354 22.768 163.354 23.04C163.354 23.328 163.242 23.56 163.018 23.736C162.794 23.896 162.586 23.976 162.394 23.976ZM176.266 11.472C176.538 11.472 176.762 11.568 176.938 11.76C177.13 11.936 177.226 12.16 177.226 12.432V23.016C177.226 23.288 177.13 23.52 176.938 23.712C176.762 23.904 176.538 24 176.266 24C175.978 24 175.746 23.904 175.57 23.712C175.394 23.52 175.306 23.288 175.306 23.016V20.736L175.762 20.688C175.762 21.04 175.642 21.424 175.402 21.84C175.162 22.256 174.834 22.648 174.418 23.016C174.002 23.368 173.506 23.664 172.93 23.904C172.37 24.128 171.762 24.24 171.106 24.24C170.018 24.24 169.042 23.96 168.178 23.4C167.314 22.824 166.626 22.048 166.114 21.072C165.618 20.096 165.37 18.984 165.37 17.736C165.37 16.472 165.618 15.36 166.114 14.4C166.626 13.424 167.314 12.664 168.178 12.12C169.042 11.56 170.002 11.28 171.058 11.28C171.746 11.28 172.386 11.392 172.978 11.616C173.57 11.84 174.082 12.144 174.514 12.528C174.962 12.912 175.306 13.336 175.546 13.8C175.802 14.264 175.93 14.728 175.93 15.192L175.306 15.048V12.432C175.306 12.16 175.394 11.936 175.57 11.76C175.746 11.568 175.978 11.472 176.266 11.472ZM171.322 22.464C172.122 22.464 172.826 22.256 173.434 21.84C174.058 21.424 174.538 20.864 174.874 20.16C175.226 19.44 175.402 18.632 175.402 17.736C175.402 16.856 175.226 16.064 174.874 15.36C174.538 14.64 174.058 14.08 173.434 13.68C172.826 13.264 172.122 13.056 171.322 13.056C170.538 13.056 169.834 13.256 169.21 13.656C168.602 14.056 168.122 14.608 167.77 15.312C167.418 16.016 167.242 16.824 167.242 17.736C167.242 18.632 167.41 19.44 167.746 20.16C168.098 20.864 168.578 21.424 169.186 21.84C169.81 22.256 170.522 22.464 171.322 22.464ZM181.744 24C181.472 24 181.24 23.904 181.048 23.712C180.872 23.52 180.784 23.288 180.784 23.016V12.552C180.784 12.28 180.872 12.056 181.048 11.88C181.24 11.688 181.472 11.592 181.744 11.592C182.032 11.592 182.264 11.688 182.44 11.88C182.616 12.056 182.704 12.28 182.704 12.552V15.72L182.416 15.216C182.512 14.72 182.68 14.24 182.92 13.776C183.176 13.296 183.496 12.872 183.88 12.504C184.264 12.12 184.704 11.824 185.2 11.616C185.696 11.392 186.24 11.28 186.832 11.28C187.184 11.28 187.504 11.368 187.792 11.544C188.096 11.704 188.248 11.936 188.248 12.24C188.248 12.576 188.16 12.824 187.984 12.984C187.808 13.144 187.608 13.224 187.384 13.224C187.176 13.224 186.976 13.184 186.784 13.104C186.592 13.008 186.352 12.96 186.064 12.96C185.664 12.96 185.264 13.072 184.864 13.296C184.48 13.504 184.12 13.808 183.784 14.208C183.464 14.608 183.2 15.064 182.992 15.576C182.8 16.072 182.704 16.608 182.704 17.184V23.016C182.704 23.288 182.608 23.52 182.416 23.712C182.24 23.904 182.016 24 181.744 24Z" fill="#020617"/>
</svg>
